<svg xmlns="http://www.w3.org/2000/svg" xmlns:xlink="http://www.w3.org/1999/xlink" width="486.878" height="523.653" viewBox="0 0 486.878 523.653">
  <defs>
    <clipPath id="clip-path">
      <rect width="486.878" height="523.653" fill="none"/>
    </clipPath>
    <linearGradient id="linear-gradient" x1="1" y1="0.5" x2="-0.693" y2="0.431" gradientUnits="objectBoundingBox">
      <stop offset="0" stop-color="#fff"/>
      <stop offset="1" stop-color="gray"/>
    </linearGradient>
  </defs>
  <g id="Repeat_Grid_1" data-name="Repeat Grid 1" clip-path="url(#clip-path)">
    <g transform="translate(-716.561 -190.347)">
      <path id="Path_10" data-name="Path 10" d="M858.935,751.236h245.276V588.984H858.935Z" transform="translate(35.108 -81.509)" fill="url(#linear-gradient)"/>
      <g id="Path_4" data-name="Path 4" transform="translate(1009.424 206.371) rotate(40)">
        <path d="M 28.23988151550293 450.9334716796875 C 23.73671531677246 450.9334716796875 19.43349266052246 450.0782470703125 15.44960403442383 448.3916320800781 C 11.59121513366699 446.7580871582031 8.187438011169434 444.4144592285156 5.332881927490234 441.4258422851562 C -0.4205622971057892 435.4021301269531 -3.369895696640015 427.3091735839844 -2.971729040145874 418.6378479003906 L 14.33260440826416 41.75868606567383 C 14.54254913330078 37.18579864501953 15.65671539306641 32.70779800415039 17.64410400390625 28.44901847839355 C 19.56527137756348 24.33224105834961 22.21715927124023 20.59268569946289 25.52604866027832 17.33424186706543 C 28.83538246154785 14.07529735565186 32.63454818725586 11.4625186920166 36.8178825378418 9.568463325500488 C 41.14660263061523 7.608630180358887 45.69916152954102 6.508408069610596 50.34899139404297 6.298296928405762 L 218.3808288574219 -1.293925285339355 C 218.9148254394531 -1.318036437034607 219.4546051025391 -1.330314159393311 219.9852142333984 -1.330314159393311 C 224.4883270263672 -1.330314159393311 228.7915496826172 -0.475091964006424 232.7754364013672 1.211519122123718 C 236.6338195800781 2.845074653625488 240.03759765625 5.188685894012451 242.8921661376953 8.177352905273438 C 248.6456604003906 14.20107460021973 251.5949859619141 22.29401969909668 251.1968231201172 30.96535301208496 L 233.8924865722656 407.8445129394531 C 233.6825561523438 412.4174194335938 232.5683746337891 416.8954772949219 230.5809936523438 421.1542358398438 C 228.6598205566406 425.2710266113281 226.0079345703125 429.0105895996094 222.6990509033203 432.2690124511719 C 219.3897094726562 435.5278930664062 215.5905456542969 438.1406860351562 211.4072113037109 440.0347290039062 C 207.0784912109375 441.9945678710938 202.5259399414062 443.0947875976562 197.8760986328125 443.3049011230469 L 29.84432601928711 450.8970642089844 C 29.31032752990723 450.9212341308594 28.77049255371094 450.9334716796875 28.23988151550293 450.9334716796875 Z" stroke="none"/>
        <path d="M 219.9851837158203 -0.830322265625 C 219.4617156982422 -0.830322265625 218.9295349121094 -0.8182373046875 218.4033508300781 -0.79443359375 L 50.37153625488281 6.797821044921875 C 45.78541564941406 7.004974365234375 41.29470825195312 8.0904541015625 37.02412414550781 10.02398681640625 C 32.89459228515625 11.89364624023438 29.14411926269531 14.47299194335938 25.87689208984375 17.69046020507812 C 22.610595703125 20.906982421875 19.99311828613281 24.59780883789062 18.09724426269531 28.66046142578125 C 16.13758850097656 32.85968017578125 15.03900146484375 37.2742919921875 14.83206176757812 41.78164672851562 L -2.4722900390625 418.6607666015625 C -2.864120483398438 427.1943359375 0.0362396240234375 435.1565246582031 5.694473266601562 441.0804443359375 C 8.50164794921875 444.01953125 11.84934997558594 446.3244018554688 15.64459228515625 447.9312133789062 C 19.56646728515625 449.5915832519531 23.80418395996094 450.4334716796875 28.23994445800781 450.4334716796875 C 28.76341247558594 450.4334716796875 29.29559326171875 450.42138671875 29.82176208496094 450.3975830078125 L 197.8535308837891 442.8053894042969 C 202.4396514892578 442.5982360839844 206.9303588867188 441.5127563476562 211.2010040283203 439.5792236328125 C 215.3304748535156 437.7095642089844 219.0810089111328 435.1301574707031 222.3482360839844 431.9127502441406 C 225.6145324707031 428.6962280273438 228.2320098876953 425.0054016113281 230.1278839111328 420.9427490234375 C 232.0875396728516 416.7435302734375 233.1861267089844 412.3289184570312 233.39306640625 407.8215637207031 L 250.6973571777344 30.94241333007812 C 251.0891876220703 22.4088134765625 248.1888275146484 14.44662475585938 242.5305938720703 8.52264404296875 C 239.7234191894531 5.583648681640625 236.3757171630859 3.27874755859375 232.5804748535156 1.67193603515625 C 228.6586456298828 0.011566162109375 224.4209442138672 -0.830322265625 219.9851837158203 -0.830322265625 M 219.9851837158203 -1.830291748046875 C 238.4754638671875 -1.830291748046875 252.54296875 12.54840087890625 251.6963043212891 30.98828125 L 234.3919982910156 407.8674621582031 C 233.5207061767578 426.8436279296875 217.18212890625 442.93310546875 197.8986511230469 443.8044128417969 L 29.86688232421875 451.3965759277344 C 29.32194519042969 451.4212036132812 28.77764892578125 451.4334411621094 28.23992919921875 451.4334411621094 C 9.749649047851562 451.4334411621094 -4.317901611328125 437.0547790527344 -3.471237182617188 418.6148681640625 L 13.83311462402344 41.73574829101562 C 14.70442199707031 22.75958251953125 31.04299926757812 6.6700439453125 50.326416015625 5.798797607421875 L 218.3582458496094 -1.793426513671875 C 218.9031677246094 -1.81805419921875 219.4474792480469 -1.830291748046875 219.9851837158203 -1.830291748046875 Z" stroke="none" fill="#707070"/>
      </g>
      <g id="Path_5" data-name="Path 5" transform="translate(1009.424 194.004) rotate(40)" fill="#fff" stroke-linejoin="round">
        <path d="M 28.23990249633789 449.9334716796875 C 23.87143135070801 449.9334716796875 19.69937324523926 449.1048583984375 15.83948993682861 447.4707641601562 C 12.10743141174316 445.8906860351562 8.815784454345703 443.62451171875 6.056019306182861 440.735107421875 C 0.4930782318115234 434.9108581542969 -2.358274698257446 427.0795288085938 -1.972804069519043 418.6837463378906 L 15.3315486907959 41.80457305908203 C 15.53549003601074 37.36280822753906 16.61843109130859 33.01169204711914 18.55031394958496 28.87192726135254 C 20.42090225219727 24.86345672607422 23.00395965576172 21.22134017944336 26.22772598266602 18.04675102233887 C 29.45284271240234 14.87075138092041 33.15466690063477 12.32475090026855 37.23037338256836 10.47951602935791 C 41.44284439086914 8.572280883789062 45.87178421020508 7.501633644104004 50.39413833618164 7.297280788421631 L 218.4259643554688 -0.2949547171592712 C 218.9449615478516 -0.3184252977371216 219.4696044921875 -0.3303076326847076 219.9851989746094 -0.3303076326847076 C 224.3536682128906 -0.3303076326847076 228.5257263183594 0.4982805848121643 232.3855438232422 2.132398128509521 C 236.1176147460938 3.712456941604614 239.4092559814453 5.978633403778076 242.1690216064453 8.868044853210449 C 247.7320251464844 14.69228076934814 250.5833740234375 22.5236930847168 250.1979064941406 30.91951560974121 L 232.8936004638672 407.7986450195312 C 232.6896667480469 412.2403869628906 231.6066589355469 416.5915832519531 229.6747894287109 420.7313537597656 C 227.8041381835938 424.7398071289062 225.2211303710938 428.3819274902344 221.9973754882812 431.5565185546875 C 218.7722473144531 434.7324523925781 215.0704345703125 437.2784423828125 210.9947204589844 439.1237487792969 C 206.7822570800781 441.0309753417969 202.3533172607422 442.1015625 197.8309631347656 442.3059387207031 L 29.79913711547852 449.8981018066406 C 29.28013801574707 449.9215698242188 28.75548934936523 449.9334716796875 28.23990249633789 449.9334716796875 Z" stroke="none"/>
        <path d="M 219.9851837158203 1.169677734375 C 219.4917144775391 1.169677734375 218.9899444580078 1.1810302734375 218.49365234375 1.203521728515625 L 50.46182250976562 8.795745849609375 C 46.13064575195312 8.991455078125 41.88711547851562 10.01763916015625 37.8489990234375 11.84591674804688 C 33.93489074707031 13.6180419921875 30.37899780273438 16.06393432617188 27.28018188476562 19.11544799804688 C 24.18423461914062 22.16427612304688 21.70442199707031 25.66021728515625 19.90959167480469 29.5062255859375 C 18.06100463867188 33.46746826171875 17.02488708496094 37.62838745117188 16.82994079589844 41.87335205078125 L -0.4744110107421875 418.75244140625 C -0.84088134765625 426.7350463867188 1.863540649414062 434.1739807128906 7.140762329101562 439.6990966796875 C 9.75836181640625 442.4396362304688 12.88182067871094 444.5896301269531 16.42436218261719 446.0894470214844 C 20.09817504882812 447.6448059082031 24.07353210449219 448.4334716796875 28.23994445800781 448.4334716796875 C 28.73341369628906 448.4334716796875 29.23518371582031 448.422119140625 29.73147583007812 448.3996276855469 L 197.7632446289062 440.8074645996094 C 202.0944213867188 440.6117553710938 206.3380126953125 439.5855102539062 210.3760681152344 437.7572937011719 C 214.2902374267578 435.985107421875 217.8461303710938 433.5392761230469 220.9449462890625 430.4877014160156 C 224.0408935546875 427.4389343261719 226.5207061767578 423.9429931640625 228.3155364990234 420.0969848632812 C 230.1641235351562 416.1357421875 231.2002410888672 411.9748229980469 231.3951721191406 407.7298583984375 L 248.6994781494141 30.85067749023438 C 249.0659484863281 22.86810302734375 246.3615264892578 15.42910766601562 241.0843048095703 9.904052734375 C 238.4667053222656 7.16351318359375 235.3432464599609 5.013458251953125 231.8007049560547 3.513702392578125 C 228.126953125 1.958343505859375 224.1515960693359 1.169677734375 219.9851837158203 1.169677734375 M 219.9851837158203 -1.830291748046875 C 238.4754638671875 -1.830291748046875 252.54296875 12.54840087890625 251.6963043212891 30.98828125 L 234.3919982910156 407.8674621582031 C 233.5207061767578 426.8436279296875 217.18212890625 442.93310546875 197.8986511230469 443.8044128417969 L 29.86688232421875 451.3965759277344 C 29.32194519042969 451.4212036132812 28.77764892578125 451.4334411621094 28.23992919921875 451.4334411621094 C 9.749649047851562 451.4334411621094 -4.317901611328125 437.0547790527344 -3.471237182617188 418.6148681640625 L 13.83311462402344 41.73574829101562 C 14.70442199707031 22.75958251953125 31.04299926757812 6.6700439453125 50.326416015625 5.798797607421875 L 218.3582458496094 -1.793426513671875 C 218.9031677246094 -1.81805419921875 219.4474792480469 -1.830291748046875 219.9851837158203 -1.830291748046875 Z" stroke="none" fill="#000"/>
      </g>
      <line id="Line_16" data-name="Line 16" y1="0.347" x2="41.638" transform="translate(1069.223 281.715) rotate(40)" fill="none" stroke="#000" stroke-linecap="round" stroke-width="5"/>
      <ellipse id="Ellipse_3" data-name="Ellipse 3" cx="5.425" cy="5.396" rx="5.425" ry="5.396" transform="translate(1005.831 331.535)" fill="#07f3ab"/>
      <path id="Path_6" data-name="Path 6" d="M942.749,309.668s-6.554-7.745-15.863-11.59-11.351-2.678-17.629,0-10.774,11.59-10.774,11.59l-26.514,68.456h0" transform="translate(62.788 20.132)" fill="none" stroke="#707070" stroke-linejoin="round" stroke-width="5"/>
      <ellipse id="Ellipse_4" data-name="Ellipse 4" cx="5.396" cy="5.426" rx="5.396" ry="5.426" transform="matrix(-0.017, 1, -1, -0.017, 1033.978, 344.683)" fill="#07f3ab"/>
      <path id="Path_7" data-name="Path 7" d="M0,14.195S6.428,6.376,15.554,2.5s11.128-2.7,17.282,0S43.4,14.2,43.4,14.2l26,69.113h0" transform="matrix(-0.017, 1, -1, -0.017, 1049.662, 356.04)" fill="none" stroke="#707070" stroke-linejoin="round" stroke-width="5"/>
      <path id="Path_8" data-name="Path 8" d="M862.794,430.922s-14.751,26.408-7.716,32.953,36.31-8.8,36.31-8.8" transform="translate(70.6 -29.28)" fill="none" stroke="#07f3ab" stroke-linejoin="round" stroke-width="10"/>
      <path id="Path_9" data-name="Path 9" d="M873.3,452.277l-14.972,4.614s-34.155,10.843-47.256,24.368-25.738,40.848,0,59.9,56.936,11.483,92.36,3.864,50.438-28.982,50.438-28.982" transform="translate(53.172 -16.976)" fill="none" stroke="#07f3ab" stroke-linejoin="round" stroke-width="10"/>
      <ellipse id="Ellipse_6" data-name="Ellipse 6" cx="20" cy="19.5" rx="20" ry="19.5" transform="translate(998.799 468.475)" fill="#07f3ab"/>
      <circle id="Ellipse_7" data-name="Ellipse 7" cx="14" cy="14" r="14" transform="translate(1004.799 473.475)" fill="#fff"/>
      <g id="Ellipse_5" data-name="Ellipse 5" transform="translate(1007.799 477.475)" fill="#7d7d7d" stroke="#707070" stroke-width="1">
        <ellipse cx="11" cy="10.5" rx="11" ry="10.5" stroke="none"/>
        <ellipse cx="11" cy="10.5" rx="10.5" ry="10" fill="none"/>
      </g>
    </g>
  </g>
</svg>
