<svg xmlns="http://www.w3.org/2000/svg" width="175.306" height="79.197" viewBox="0 0 175.306 79.197">
  <path id="Union_1" data-name="Union 1" d="M115.193,11.036l.758-.721-1.033-.979V9.293h-.726v-15h.984L115.181-6l-.005.294h15.016v2.473l.86-.819,61.334,58.345h1.806v1.718l.016.015v0l.938.892-.938.892V69.427h-.016v.867H181.086l-1.8,1.713Zm79.015,58.391V57.811l-.016.015v11.6ZM115.95,10.315l1.074-1.022h-2.106v.043Zm-1.3,59.325V49.575l-.146,0,.41-20.213v0l.108-5.319,25.73,24.476h.328v.312l.265.252-.265,0v.1l.109.1-.109-.1V69.427h0v.213Zm26.959-20.579-.264,20.365ZM130.192-5.706l64,60ZM82.227,42.275a2.675,2.675,0,0,1-.557-1.846V25.605L78.227,39.287q-.336,1.332-.549,1.956a2.692,2.692,0,0,1-.784,1.135,2.282,2.282,0,0,1-1.581.513,2.317,2.317,0,0,1-2.11-1.172,4.828,4.828,0,0,1-.462-1.136q-.169-.622-.344-1.3L68.955,25.605V40.429a2.7,2.7,0,0,1-.55,1.846,2.015,2.015,0,0,1-2.893.007,2.669,2.669,0,0,1-.557-1.853V23.437a2.132,2.132,0,0,1,.733-1.9,3.512,3.512,0,0,1,1.977-.491h1.348a5.136,5.136,0,0,1,1.765.22,1.482,1.482,0,0,1,.813.791,12.225,12.225,0,0,1,.6,1.86l3.12,11.763L78.432,23.92a12.225,12.225,0,0,1,.6-1.86,1.482,1.482,0,0,1,.813-.791,5.136,5.136,0,0,1,1.765-.22h1.348a3.512,3.512,0,0,1,1.977.491,2.132,2.132,0,0,1,.733,1.9V40.429a2.7,2.7,0,0,1-.55,1.846,1.875,1.875,0,0,1-1.471.616A1.829,1.829,0,0,1,82.227,42.275Zm-36.49-.051a2.832,2.832,0,0,1-.6-1.956V23.715a2.706,2.706,0,0,1,.659-2.05,3,3,0,0,1,2.1-.616h5.581a14.636,14.636,0,0,1,3.809.381,5.688,5.688,0,0,1,2.278,1.216,5.5,5.5,0,0,1,1.457,2.08,7.324,7.324,0,0,1,.5,2.769,6.115,6.115,0,0,1-2.022,4.973q-2.021,1.693-6.02,1.692H49.487v6.08a2.838,2.838,0,0,1-.616,1.977,2.167,2.167,0,0,1-3.135.007Zm3.75-11.345h2.93a8.748,8.748,0,0,0,2.571-.322A2.987,2.987,0,0,0,56.562,29.5a3.143,3.143,0,0,0,.542-1.919,3.255,3.255,0,0,0-.834-2.314q-.938-.953-3.853-.952h-2.93ZM36.977,42.722a2.664,2.664,0,0,1-.878-.535,5.2,5.2,0,0,1-.762-.857q-.351-.49-.7-1L26.474,27.817V40.4a2.682,2.682,0,0,1-.572,1.86,1.889,1.889,0,0,1-1.464.63,1.867,1.867,0,0,1-1.48-.637A2.74,2.74,0,0,1,22.4,40.4V23.833a4.683,4.683,0,0,1,.235-1.656,2.363,2.363,0,0,1,.923-1.076,2.516,2.516,0,0,1,1.392-.418,2.285,2.285,0,0,1,1.735.7,5.253,5.253,0,0,1,.644.835q.331.513.681,1.069l8.365,12.657V23.173a2.8,2.8,0,0,1,.535-1.868,1.8,1.8,0,0,1,1.443-.623,1.86,1.86,0,0,1,1.48.623,2.78,2.78,0,0,1,.542,1.868V40.063q0,2.828-2.344,2.828A3.121,3.121,0,0,1,36.977,42.722ZM168.913,15.887l-.641-.593h-.08V15.22l-1-.926,1,.926V15.2l-.546-.52.546-.01V-5.706h26v19.9h.016v0l.277-.005-.277,13.653v0L193.98,39.1l.212.2-.212-.2-.013.623Zm0,0-.623-.593h-.017ZM167.778-6v0Zm0,0,26.429.252Zm-52.6,0h0Z" transform="translate(-21.902 6.5)" fill="#00ffb1" stroke="rgba(0,0,0,0)" stroke-miterlimit="10" stroke-width="1"/>
</svg>
